# xmcd CD database file
#
# Track frame offsets:
#	150
#	12243
#	31746
#	44255
#	59000
#	72638
#	86139
#	99358
#	114811
#	129328
#	144173
#	159273
#	172792
#	186883
#	200405
#	212134
#	225248
#	238054
#	251496
#	262908
#	276609
#	289872
#	301256
#
# Disc length: 4208 seconds
#
# Revision: 0
# Processed by: cddbd v1.5.1PL2 Copyright (c) Steve Scherf et al.
# Submitted via: CDex 1.60beta1-cs1
#
DISCID=3b106e17
DTITLE=Various Artist - City of London Phonograph and Gramophone Society 2003 Jazz Sampler 1916-1939
DYEAR=2003
DGENRE=Jazz
TTITLE0=The Versatile Four - Down Home Rag (HMV C654, 1916)
TTITLE1=Original Dixieland Jazz Band - Lasses Candy (Columbia 759, 1919)
TTITLE2=King Oliver's Jazz Band - London (Cafe) Blues (Columbia 14003, 1923)
TTITLE3=Piron's New Orleans Orchestra - Bright Star Blues (Columbia 99, 1924)
TTITLE4=Johnny Bayersdorfer and his Jazzola Novelty Orchestra - The Waffle Man's Call (Parlophone R2360, 1924)
TTITLE5=The Wolverine Orchestra - Big Boy (Gennett 5565, 1924)
TTITLE6=Erskine Tate's Vendome Orchestra - Stomp Off, Let's Go (Oriole 1004, 1926)
TTITLE7=Bessie Smith and her Blue Boys - There'll be a hot Time in the old Town tonight (Parlophone R2477, 1927)
TTITLE8=Noble Sissle and his Orchestra - Miranda (HMV B5709, 1929)
TTITLE9=Louis Armstrong and his Orchestra - After you've gone (Odeon unissued, 1929)
TTITLE10=Miff Mole and his Molers - Navy Blues (Parlophone unissued, 1930)
TTITLE11=Jelly-Roll Morton and his Orchestra - Crazy Chords (HMV B4898, 1930)
TTITLE12=Bennie Moten's Kansas City Orchestra - Somebody stole my Gal (HMV B4844, 1930)
TTITLE13=Glen Gray and the Casa Loma Orchestra - Put on your old grey Bonnet (Brunswick 1144, 1931)
TTITLE14=Picaninny Jug Band - Bottle it up and go (Champion 16615, 1932)
TTITLE15=Washboard Rhythm Kings - Going, going, gone (Columbia 265088, 1933)
TTITLE16=Benny Goodman and his Orchestra - Your Mother's Son in Law (Columbia CB 786, 1933)
TTITLE17=Le Quintette du Hot Club de France - Confessin' (Oriole LV 102, 1935)
TTITLE18=Locke Brothers Rhythm Orchestra - China Boy (Bluebird B 6332, 1936)
TTITLE19=Duke Ellington and his Orchestra - In a Jam (Vocalion S 31, 1936)
TTITLE20=The Bud Freeman Trio - I got Rhythm (Commodore 502, 1938)
TTITLE21=Tommy Dorsey and his Clambake Seven - The Sheik of Araby (HMV B8825, 1938)
TTITLE22=Glenn Miller Orchestra - Blue Rain (HMV BD 5927, 1939)
EXTD=YEAR: 2003
EXTT0=
EXTT1=
EXTT2=
EXTT3=
EXTT4=
EXTT5=
EXTT6=
EXTT7=
EXTT8=
EXTT9=
EXTT10=
EXTT11=
EXTT12=
EXTT13=
EXTT14=
EXTT15=
EXTT16=
EXTT17=
EXTT18=
EXTT19=
EXTT20=
EXTT21=
EXTT22=
PLAYORDER=
